<svg width="167" height="40" viewBox="0 0 167 40" fill="none" xmlns="http://www.w3.org/2000/svg">
<rect width="40" height="40" rx="20" fill="url(#paint0_radial_0_1)"/>
<path d="M24.608 11.008H27.68L29.624 16.648L31.592 11.008H34.64L31.712 18.76L33.872 24.184L38.696 10.96H42.296L35.48 28H32.624L29.624 20.848L26.648 28H23.792L17 10.96H20.552L25.4 24.184L27.512 18.76L24.608 11.008ZM41.4828 24.28C41.4828 23.464 41.7068 22.752 42.1548 22.144C42.6188 21.52 43.2588 21.04 44.0748 20.704C44.8908 20.368 45.8268 20.2 46.8828 20.2C47.4108 20.2 47.9468 20.24 48.4908 20.32C49.0348 20.4 49.5068 20.528 49.9068 20.704V20.032C49.9068 19.232 49.6668 18.616 49.1868 18.184C48.7228 17.752 48.0268 17.536 47.0988 17.536C46.4108 17.536 45.7548 17.656 45.1308 17.896C44.5068 18.136 43.8508 18.488 43.1628 18.952L42.1308 16.84C42.9628 16.296 43.8108 15.888 44.6748 15.616C45.5548 15.344 46.4748 15.208 47.4348 15.208C49.2268 15.208 50.6188 15.656 51.6108 16.552C52.6188 17.448 53.1228 18.728 53.1228 20.392V24.4C53.1228 24.736 53.1788 24.976 53.2908 25.12C53.4188 25.264 53.6188 25.352 53.8908 25.384V28C53.6028 28.048 53.3388 28.088 53.0988 28.12C52.8748 28.152 52.6828 28.168 52.5228 28.168C51.8828 28.168 51.3948 28.024 51.0588 27.736C50.7388 27.448 50.5388 27.096 50.4588 26.68L50.3868 26.032C49.8428 26.736 49.1628 27.28 48.3468 27.664C47.5308 28.048 46.6988 28.24 45.8508 28.24C45.0188 28.24 44.2668 28.072 43.5948 27.736C42.9388 27.384 42.4188 26.912 42.0348 26.32C41.6668 25.712 41.4828 25.032 41.4828 24.28ZM49.3068 24.928C49.4828 24.736 49.6268 24.544 49.7388 24.352C49.8508 24.16 49.9068 23.984 49.9068 23.824V22.552C49.5228 22.392 49.1068 22.272 48.6588 22.192C48.2108 22.096 47.7868 22.048 47.3868 22.048C46.5548 22.048 45.8668 22.232 45.3228 22.6C44.7948 22.952 44.5308 23.424 44.5308 24.016C44.5308 24.336 44.6188 24.64 44.7948 24.928C44.9708 25.216 45.2268 25.448 45.5628 25.624C45.8988 25.8 46.2988 25.888 46.7628 25.888C47.2428 25.888 47.7148 25.8 48.1788 25.624C48.6428 25.432 49.0188 25.2 49.3068 24.928ZM63.5469 27.352C63.2749 27.464 62.9469 27.592 62.5629 27.736C62.1789 27.88 61.7629 27.992 61.3149 28.072C60.8829 28.168 60.4429 28.216 59.9949 28.216C59.4029 28.216 58.8589 28.112 58.3629 27.904C57.8669 27.696 57.4669 27.368 57.1629 26.92C56.8749 26.456 56.7309 25.856 56.7309 25.12V17.896H55.0749V15.424H56.7309V11.344H59.9469V15.424H62.5869V17.896H59.9469V24.04C59.9629 24.472 60.0829 24.784 60.3069 24.976C60.5309 25.168 60.8109 25.264 61.1469 25.264C61.4829 25.264 61.8109 25.208 62.1309 25.096C62.4509 24.984 62.7069 24.888 62.8989 24.808L63.5469 27.352ZM70.9372 28.24C69.9132 28.24 68.9932 28.072 68.1772 27.736C67.3612 27.384 66.6652 26.904 66.0892 26.296C65.5132 25.672 65.0652 24.968 64.7452 24.184C64.4412 23.4 64.2892 22.576 64.2892 21.712C64.2892 20.528 64.5532 19.448 65.0812 18.472C65.6252 17.48 66.3932 16.688 67.3852 16.096C68.3772 15.504 69.5532 15.208 70.9132 15.208C72.2732 15.208 73.4412 15.504 74.4172 16.096C75.3932 16.688 76.1212 17.464 76.6012 18.424L73.4572 19.384C73.1852 18.92 72.8252 18.568 72.3772 18.328C71.9292 18.072 71.4332 17.944 70.8892 17.944C70.2812 17.944 69.7212 18.104 69.2092 18.424C68.7132 18.728 68.3212 19.168 68.0332 19.744C67.7452 20.304 67.6012 20.96 67.6012 21.712C67.6012 22.448 67.7452 23.104 68.0332 23.68C68.3372 24.24 68.7372 24.688 69.2332 25.024C69.7292 25.344 70.2812 25.504 70.8892 25.504C71.2732 25.504 71.6332 25.44 71.9692 25.312C72.3212 25.184 72.6332 25.008 72.9052 24.784C73.1772 24.56 73.3772 24.304 73.5052 24.016L76.6492 24.976C76.3612 25.6 75.9372 26.16 75.3772 26.656C74.8332 27.152 74.1852 27.544 73.4332 27.832C72.6972 28.104 71.8652 28.24 70.9372 28.24ZM90.3161 28H87.1001V20.944C87.1001 19.968 86.9081 19.24 86.5241 18.76C86.1561 18.28 85.6441 18.04 84.9881 18.04C84.6041 18.04 84.1961 18.152 83.7641 18.376C83.3321 18.6 82.9401 18.912 82.5881 19.312C82.2521 19.696 82.0041 20.144 81.8441 20.656V28H78.6281V10.48H81.8441V17.752C82.3081 16.952 82.9401 16.328 83.7401 15.88C84.5401 15.432 85.4121 15.208 86.3561 15.208C87.1721 15.208 87.8361 15.352 88.3481 15.64C88.8601 15.912 89.2601 16.288 89.5481 16.768C89.8361 17.232 90.0361 17.76 90.1481 18.352C90.2601 18.928 90.3161 19.528 90.3161 20.152V28ZM105.21 25.096V28H93.3776V10.96H104.994V13.864H96.6896V17.968H103.866V20.656H96.6896V25.096H105.21ZM109.544 15.424L112.184 19.36L112.376 19.792L112.616 19.36L115.232 15.424H118.616L114.248 21.688L118.688 28H115.304L112.592 24.088L112.376 23.68L112.184 24.088L109.496 28H106.112L110.552 21.76L106.184 15.424H109.544ZM127.766 28.24C126.79 28.24 125.926 28.024 125.174 27.592C124.438 27.144 123.862 26.544 123.446 25.792V33.112H120.23V15.424H123.038V17.584C123.518 16.848 124.126 16.272 124.862 15.856C125.598 15.424 126.438 15.208 127.382 15.208C128.23 15.208 129.006 15.376 129.71 15.712C130.43 16.048 131.054 16.52 131.582 17.128C132.11 17.72 132.518 18.408 132.806 19.192C133.11 19.96 133.262 20.792 133.262 21.688C133.262 22.904 133.022 24.008 132.542 25C132.078 25.992 131.43 26.784 130.598 27.376C129.782 27.952 128.838 28.24 127.766 28.24ZM126.686 25.504C127.182 25.504 127.63 25.4 128.03 25.192C128.43 24.984 128.774 24.704 129.062 24.352C129.366 23.984 129.59 23.576 129.734 23.128C129.894 22.664 129.974 22.184 129.974 21.688C129.974 21.16 129.886 20.672 129.71 20.224C129.55 19.776 129.31 19.384 128.99 19.048C128.67 18.696 128.294 18.424 127.862 18.232C127.446 18.04 126.99 17.944 126.494 17.944C126.19 17.944 125.878 18 125.558 18.112C125.254 18.208 124.958 18.352 124.67 18.544C124.382 18.736 124.126 18.96 123.902 19.216C123.694 19.472 123.542 19.752 123.446 20.056V23.008C123.638 23.472 123.894 23.896 124.214 24.28C124.55 24.664 124.934 24.968 125.366 25.192C125.798 25.4 126.238 25.504 126.686 25.504ZM141.273 28.24C140.265 28.24 139.353 28.072 138.537 27.736C137.721 27.384 137.025 26.912 136.449 26.32C135.873 25.712 135.425 25.024 135.105 24.256C134.801 23.472 134.649 22.648 134.649 21.784C134.649 20.584 134.913 19.488 135.441 18.496C135.985 17.504 136.753 16.712 137.745 16.12C138.753 15.512 139.937 15.208 141.297 15.208C142.673 15.208 143.849 15.512 144.825 16.12C145.801 16.712 146.545 17.504 147.057 18.496C147.585 19.472 147.849 20.528 147.849 21.664C147.849 21.856 147.841 22.056 147.825 22.264C147.809 22.456 147.793 22.616 147.777 22.744H138.057C138.121 23.384 138.305 23.944 138.609 24.424C138.929 24.904 139.329 25.272 139.809 25.528C140.305 25.768 140.833 25.888 141.393 25.888C142.033 25.888 142.633 25.736 143.193 25.432C143.769 25.112 144.161 24.696 144.369 24.184L147.129 24.952C146.825 25.592 146.385 26.16 145.809 26.656C145.249 27.152 144.585 27.544 143.817 27.832C143.049 28.104 142.201 28.24 141.273 28.24ZM137.985 20.704H144.561C144.497 20.064 144.313 19.512 144.009 19.048C143.721 18.568 143.337 18.2 142.857 17.944C142.377 17.672 141.841 17.536 141.249 17.536C140.673 17.536 140.145 17.672 139.665 17.944C139.201 18.2 138.817 18.568 138.513 19.048C138.225 19.512 138.049 20.064 137.985 20.704ZM157.296 18.208C156.32 18.208 155.448 18.4 154.68 18.784C153.912 19.152 153.36 19.688 153.024 20.392V28H149.808V15.424H152.76V18.112C153.208 17.248 153.776 16.568 154.464 16.072C155.152 15.576 155.88 15.304 156.648 15.256C156.824 15.256 156.96 15.256 157.056 15.256C157.152 15.256 157.232 15.264 157.296 15.28V18.208ZM166.625 27.352C166.353 27.464 166.025 27.592 165.641 27.736C165.257 27.88 164.841 27.992 164.393 28.072C163.961 28.168 163.521 28.216 163.073 28.216C162.481 28.216 161.937 28.112 161.441 27.904C160.945 27.696 160.545 27.368 160.241 26.92C159.953 26.456 159.809 25.856 159.809 25.12V17.896H158.153V15.424H159.809V11.344H163.025V15.424H165.665V17.896H163.025V24.04C163.041 24.472 163.161 24.784 163.385 24.976C163.609 25.168 163.889 25.264 164.225 25.264C164.561 25.264 164.889 25.208 165.209 25.096C165.529 24.984 165.785 24.888 165.977 24.808L166.625 27.352Z" fill="#F1E4CF"/>
<defs>
<radialGradient id="paint0_radial_0_1" cx="0" cy="0" r="1" gradientUnits="userSpaceOnUse" gradientTransform="translate(8 20) rotate(-10.6197) scale(32.5576)">
<stop stop-color="#F1E4CF" stop-opacity="0.5"/>
<stop offset="1" stop-color="#C4C4C4" stop-opacity="0"/>
</radialGradient>
</defs>
</svg>